<?xml version="1.0" encoding="utf-8"?>
<!-- Generator: Adobe Illustrator 22.0.1, SVG Export Plug-In . SVG Version: 6.00 Build 0)  -->
<svg version="1.1" id="Layer_1" xmlns="http://www.w3.org/2000/svg" xmlns:xlink="http://www.w3.org/1999/xlink" x="0px" y="0px"
	 viewBox="0 0 141.7 141.7" style="enable-background:new 0 0 141.7 141.7;" xml:space="preserve">
<style type="text/css">
	.st0{fill:#F7A810;}
</style>
<path class="st0" d="M70.3,7.9L70.3,7.9c-3.6,0-7.5,0-11.1,0c-10,0-20,0-30.4,0c-5.4,0-10.7,0-16.1,0c-1.8,0-3.2,0-5,0
	S4.5,9,4.5,10.8s0,3.6,0.4,5.4C5.2,17.9,6.3,19,8.4,19c1.4,0,2.5,0,3.9,0c4.6,0,8.9,0,13.6,0c9.7,0,19.3,0,29.3,0
	c6.8,0,13.9,0,20.7,0c8.6,0,17.5,0,26.1,0c5.4,0,10.7,0,16.5,0c5,0,10,0,15,0c1.4,0,2.5-1.1,2.9-2.5c0.4-1.8,0.7-3.9,0.7-5.7
	c0.4-1.8-1.1-2.9-2.5-2.9c-2.9,0-5.4,0-8.2,0c-7.2,0-14.3,0-21.5,0c-6.1,0-12.2,0-18.2,0C81.7,7.9,76,7.9,70.3,7.9z M70.3,55.5
	c0,2.5-0.4,5-0.4,7.2c-0.7,6.4-1.4,12.5-1.8,19c-0.7,6.4-1.1,12.5-1.8,19c-0.7,6.4-1.4,12.9-2.1,19.3c-0.4,3.6-0.7,7.2-1.1,10.7
	c0,0.4,0,0.7,0.4,1.1c0.7,1.4,2.1,2.1,3.6,2.1c4.3,0,8.6-0.4,13.2,0c0.7,0,1.8,0,2.1-1.1c0.4-1.1,0.7-2.1,0.7-3.2
	c0-1.4-0.4-3.2-0.7-4.6c-0.4-6.4-1.1-12.9-1.4-19.3c-0.4-8.2-1.1-16.1-1.4-24.3c-0.4-6.8-0.7-13.2-1.1-20c-0.4-3.2-0.4-6.4-0.7-9.7
	c0-2.1-1.4-2.9-3.2-2.5c-0.4,0-0.4,0-0.7,0c-1.8,0.7-2.9,1.8-2.9,3.2C70.7,53.7,70.3,54.8,70.3,55.5z M31.7,113.4
	c1.1,0.4,1.1-0.4,1.4-1.1c0.7-1.8,1.1-3.6,1.8-5.4c3.2-7.2,6.4-13.9,9.7-20.7c5-10.7,10-21.5,15-32.5c0.4-1.1,0.7-2.1,1.4-2.9
	c1.4-1.8,0.4-5-1.8-5.4c-1.8-0.4-3.2,0-4.3,1.8c-2.1,3.2-4.3,6.8-6.8,10c-2.9,3.9-5.7,7.5-8.6,11.4c-5.7,7.5-11.4,15-16.8,22.5
	c-2.5,3.2-4.6,6.1-7.2,9.3c-1.1,1.4-0.7,2.9,0.7,3.9c0.4,0.4,0.7,0.4,1.1,0.7c3.6,2.1,7.2,4.6,10.7,6.8
	C29.2,112.7,30.2,113.4,31.7,113.4z M87.5,45.8c-1.4,0-2.5,0.7-2.9,1.8c-0.4,1.4,0,2.5,0.7,3.9c4.6,8.9,9.3,18.2,13.9,27.2
	c5.4,10.4,10.7,20.4,15.7,30.4c0.7,1.4,2.5,1.8,3.9,1.1c3.2-2.1,6.1-4.3,9.3-6.4c1.1-0.7,2.1-1.4,3.2-2.1c1.1-0.7,1.1-2.1,0.4-2.9
	c-0.7-1.1-1.8-2.1-2.5-3.2c-3.6-4.3-7.2-8.6-10.7-13.2c-4.3-5.4-8.6-10.4-12.9-15.7c-4.6-5.7-9.3-11.4-13.9-17.2
	c-0.4-0.7-0.7-1.4-1.1-2.1C89.6,46.5,88.9,45.8,87.5,45.8z"/>
</svg>
