<?xml version="1.0" encoding="utf-8"?>
<!-- Generator: Adobe Illustrator 22.1.0, SVG Export Plug-In . SVG Version: 6.00 Build 0)  -->
<svg version="1.1" id="Layer_1" xmlns="http://www.w3.org/2000/svg" xmlns:xlink="http://www.w3.org/1999/xlink" x="0px" y="0px"
	 viewBox="0 0 280 36" style="enable-background:new 0 0 280 36;" xml:space="preserve">
<style type="text/css">
	.st0{fill:#676767;}
	.st1{fill:#F7A70B;}
</style>
<g>
	<path class="st0" d="M84.9,18.3h7.6v9.6c-2.8,1.2-5.5,1.8-8.3,1.8c-3.7,0-6.7-1.1-9-3.3c-2.2-2.2-3.3-4.9-3.3-8.1
		c0-3.4,1.2-6.2,3.5-8.4c2.3-2.2,5.2-3.4,8.7-3.4c1.3,0,2.5,0.1,3.6,0.4c1.1,0.3,2.6,0.8,4.3,1.5v3.3c-2.7-1.6-5.4-2.3-8-2.3
		c-2.5,0-4.5,0.8-6.2,2.5c-1.7,1.7-2.5,3.7-2.5,6.2c0,2.6,0.8,4.7,2.5,6.3c1.7,1.6,3.9,2.4,6.5,2.4c1.3,0,2.8-0.3,4.6-0.9l0.3-0.1
		v-4.7h-4.3V18.3z"/>
	<polygon class="st0" points="100.5,6.9 113.3,6.9 113.3,9.8 103.7,9.8 103.7,16.6 113,16.6 113,19.5 103.7,19.5 103.7,26.5 
		113.6,26.5 113.6,29.4 100.5,29.4 	"/>
	<path class="st0" d="M131.4,6.6c3.5,0,6.4,1.1,8.7,3.3c2.3,2.2,3.5,5,3.5,8.3c0,3.3-1.2,6.1-3.5,8.3c-2.3,2.2-5.3,3.3-8.8,3.3
		c-3.4,0-6.2-1.1-8.5-3.3c-2.3-2.2-3.4-4.9-3.4-8.2c0-3.4,1.1-6.2,3.4-8.4C125,7.7,127.9,6.6,131.4,6.6 M131.5,9.6
		c-2.6,0-4.7,0.8-6.4,2.4c-1.7,1.6-2.5,3.7-2.5,6.2c0,2.4,0.8,4.5,2.5,6.1c1.7,1.6,3.8,2.4,6.3,2.4c2.5,0,4.6-0.8,6.3-2.5
		c1.7-1.6,2.5-3.7,2.5-6.2c0-2.4-0.8-4.4-2.5-6C136.1,10.5,134,9.6,131.5,9.6"/>
	<polygon class="st0" points="163.8,6.9 167,6.9 157.5,29.5 156.8,29.5 147.1,6.9 150.3,6.9 157.1,22.7 	"/>
	<path class="st0" d="M177.4,6.8h2.3l10.1,22.7h-3.3l-3-6.7h-9.6l-2.8,6.7h-3.3L177.4,6.8z M182.1,19.9l-3.6-8.2l-3.4,8.2H182.1z"/>
	<polygon class="st0" points="190.3,6.9 209.1,6.9 209.1,9.7 201.3,9.7 201.3,29.4 198,29.4 198,9.7 190.3,9.7 	"/>
	<rect x="215.5" y="6.9" class="st0" width="3.2" height="22.6"/>
	<path class="st0" d="M238.1,6.6c3.5,0,6.4,1.1,8.7,3.3c2.3,2.2,3.5,5,3.5,8.3c0,3.3-1.2,6.1-3.5,8.3c-2.3,2.2-5.3,3.3-8.8,3.3
		c-3.4,0-6.2-1.1-8.5-3.3c-2.3-2.2-3.4-4.9-3.4-8.2c0-3.4,1.1-6.2,3.4-8.4C231.8,7.7,234.7,6.6,238.1,6.6 M238.3,9.6
		c-2.6,0-4.7,0.8-6.4,2.4c-1.7,1.6-2.5,3.7-2.5,6.2c0,2.4,0.8,4.5,2.5,6.1c1.7,1.6,3.7,2.4,6.3,2.4c2.5,0,4.6-0.8,6.3-2.5
		c1.7-1.6,2.5-3.7,2.5-6.2c0-2.4-0.8-4.4-2.5-6C242.8,10.5,240.7,9.6,238.3,9.6"/>
	<polygon class="st0" points="275.5,6.9 278.6,6.9 278.6,29.4 275.8,29.4 260.7,12.1 260.7,29.4 257.7,29.4 257.7,6.9 260.3,6.9 
		275.5,24.4 	"/>
	<path class="st1" d="M19.2,0L19.2,0l-3.2,0c-2.9,0-5.8,0-8.6,0c-1.5,0-3,0-4.6,0H1.4C0.9,0.1,0.5,0.5,0.5,1c0,0.5,0,1,0.1,1.5
		c0.1,0.6,0.5,0.8,1,0.8c0.4,0,0.8,0,1.1,0c1.3,0,2.6,0,3.9,0c2.8,0,5.6,0,8.3,0c2,0,3.9,0,5.9,0c2.5,0,5,0,7.5,0c1.6,0,3.1,0,4.7,0
		c1.4,0,2.8,0,4.2,0c0.4,0,0.7-0.3,0.8-0.7c0.1-0.6,0.2-1.1,0.2-1.7C38.4,0.4,38.1,0,37.6,0c-0.8,0-1.6,0-2.4,0c-2,0-4.1,0-6.1,0H24
		H19.2z M19.2,13.6c0,0.7-0.1,1.4-0.1,2.1c-0.2,1.8-0.4,3.6-0.5,5.4c-0.2,1.8-0.3,3.6-0.5,5.4c-0.2,1.8-0.4,3.6-0.6,5.5
		c-0.1,1-0.2,2.1-0.4,3.1c0,0.1,0,0.2,0.1,0.3c0.2,0.4,0.6,0.6,1,0.6c1.2,0,2.5-0.1,3.7,0c0.2,0,0.5,0,0.6-0.3
		c0.1-0.3,0.2-0.6,0.2-0.9c0-0.4-0.1-0.9-0.2-1.3c-0.1-1.8-0.3-3.7-0.4-5.5c-0.1-2.3-0.3-4.6-0.4-7c-0.1-1.9-0.2-3.8-0.3-5.7
		c-0.1-0.9-0.1-1.8-0.2-2.7c0-0.6-0.4-0.8-1-0.7c-0.1,0-0.1,0-0.2,0c-0.5,0.2-0.9,0.5-0.8,1C19.2,13.1,19.2,13.4,19.2,13.6
		 M8.1,30.1c0.3,0.1,0.3-0.1,0.4-0.3c0.2-0.5,0.3-1,0.6-1.5c0.9-2,1.9-4,2.8-6c1.4-3.1,2.9-6.2,4.3-9.2c0.1-0.3,0.2-0.6,0.4-0.8
		c0.4-0.5,0.1-1.4-0.5-1.5c-0.5-0.1-0.9,0-1.3,0.5c-0.6,0.9-1.2,1.9-1.9,2.8c-0.8,1.1-1.6,2.2-2.4,3.3c-1.6,2.1-3.2,4.3-4.8,6.4
		c-0.7,0.9-1.3,1.8-2,2.7c-0.3,0.4-0.2,0.8,0.2,1.1c0.1,0.1,0.2,0.1,0.3,0.2c1,0.7,2,1.3,3,2C7.4,29.9,7.7,30.1,8.1,30.1 M24,10.9
		c-0.4,0-0.7,0.2-0.8,0.6c-0.1,0.4,0,0.7,0.2,1.1c1.3,2.6,2.6,5.2,4,7.8c1.5,2.9,3,5.8,4.5,8.7c0.2,0.4,0.7,0.6,1.2,0.3
		c0.9-0.6,1.8-1.2,2.6-1.8c0.3-0.2,0.6-0.4,0.9-0.6c0.3-0.2,0.3-0.6,0.1-0.8c-0.3-0.3-0.5-0.6-0.8-0.9c-1-1.2-2.1-2.5-3.1-3.7
		c-1.2-1.5-2.4-3-3.6-4.5c-1.3-1.6-2.7-3.3-4-4.9c-0.1-0.2-0.3-0.4-0.4-0.6C24.7,11.1,24.4,10.9,24,10.9"/>
</g>
</svg>
