<svg id="Flat" enable-background="new 0 0 64 64" height="512" viewBox="0 0 64 64" width="512" xmlns="http://www.w3.org/2000/svg"><path d="m32 7.417-24 16.293v37.29h48v-37.29z" fill="#eae8e5"/><path d="m17 41h11v20h-11z" fill="#e89d43"/><path d="m39 50h14v4h-14z" fill="#33385c"/><g fill="#454a6d"><path d="m36 61v-14l2-3 2 3v14z"/><path d="m44 61v-14l2-3 2 3v14z"/><path d="m52 61v-14l2-3 2 3v14z"/></g><path d="m35 32h-6c-1.657 0-3-1.343-3-3v-6c0-1.657 1.343-3 3-3h6c1.657 0 3 1.343 3 3v6c0 1.657-1.343 3-3 3z" fill="#4ac3ed"/><path d="m38 25h-5v-5h-2v5h-5v2h5v5h2v-5h5z" fill="#454a6d"/><path d="m23 50h2v2h-2z" fill="#454a6d"/><path d="m7 53h2v8h-2z" fill="#454a6d"/><path d="m13 49c0 3.59-2.239 6-5 6s-5-2.41-5-6c0-2.344 2.131-8.02 3.611-11.679.506-1.251 2.273-1.251 2.779 0 1.479 3.659 3.61 9.335 3.61 11.679z" fill="#76cc7a"/><path d="m2 60h60v2h-60z" fill="#454a6d"/><path d="m58.877 25.655-26.877-18.238-26.877 18.238-2.246-3.31 29.123-19.762 29.123 19.762z" fill="#e89d43"/></svg>