<svg xmlns="http://www.w3.org/2000/svg" viewBox="25 37.5 203 75.5"><defs><style>.cls-1{fill:#191100;}.cls-2{fill:none;stroke:#191100;stroke-miterlimit:10;}</style></defs><title>geovationphotos-logo</title><g id="content-expanded"><path class="cls-1" d="M94.26,105.65v6.84H93v-17h4.38a6.74,6.74,0,0,1,4.51,1.31,4.67,4.67,0,0,1,1.52,3.73,4.91,4.91,0,0,1-.42,2,4.43,4.43,0,0,1-1.19,1.62,5.72,5.72,0,0,1-1.9,1.06,7.86,7.86,0,0,1-2.52.37Zm0-1h3.15a6,6,0,0,0,2-.31,4.57,4.57,0,0,0,1.51-.87,3.77,3.77,0,0,0,.94-1.3,4,4,0,0,0,.33-1.64,3.81,3.81,0,0,0-1.2-3,5.35,5.35,0,0,0-3.6-1.05H94.26Z"/><path class="cls-1" d="M106.34,112.49V95h1.14v7.56a6.58,6.58,0,0,1,1.89-1.62,4.66,4.66,0,0,1,2.38-.61,4.47,4.47,0,0,1,1.74.31,3.23,3.23,0,0,1,1.24.9,3.84,3.84,0,0,1,.74,1.42,6.35,6.35,0,0,1,.26,1.87v7.63h-1.14v-7.63a4.08,4.08,0,0,0-.77-2.63,2.83,2.83,0,0,0-2.35-1,4.11,4.11,0,0,0-2.19.61,6.39,6.39,0,0,0-1.8,1.66v8.95Z"/><path class="cls-1" d="M123.87,100.36a5.75,5.75,0,0,1,2.3.44,4.55,4.55,0,0,1,1.71,1.24,5.35,5.35,0,0,1,1.06,1.94,8.87,8.87,0,0,1,0,5.07,5.31,5.31,0,0,1-1.06,1.93,4.55,4.55,0,0,1-1.71,1.24,6.34,6.34,0,0,1-4.59,0,4.66,4.66,0,0,1-1.72-1.24,5.48,5.48,0,0,1-1.07-1.93,9.11,9.11,0,0,1,0-5.07,5.53,5.53,0,0,1,1.07-1.94,4.66,4.66,0,0,1,1.72-1.24A5.74,5.74,0,0,1,123.87,100.36Zm0,11.39a4.33,4.33,0,0,0,1.87-.37,3.42,3.42,0,0,0,1.33-1,4.54,4.54,0,0,0,.8-1.65,9.1,9.1,0,0,0,0-4.32,4.67,4.67,0,0,0-.8-1.66,3.57,3.57,0,0,0-1.33-1.07,4.89,4.89,0,0,0-3.73,0,3.57,3.57,0,0,0-1.33,1.07,4.68,4.68,0,0,0-.81,1.66,8.78,8.78,0,0,0,0,4.32,4.55,4.55,0,0,0,.81,1.65,3.42,3.42,0,0,0,1.33,1A4.32,4.32,0,0,0,123.87,111.75Z"/><path class="cls-1" d="M135.56,112.68a2.53,2.53,0,0,1-1.88-.67,2.8,2.8,0,0,1-.67-2.07v-8.16h-1.72a.38.38,0,0,1-.22-.07.29.29,0,0,1-.08-.21v-.44l2-.15.28-4.27a.34.34,0,0,1,.09-.19.26.26,0,0,1,.21-.08h.54v4.55h3.75v.86h-3.75v8.1a2.57,2.57,0,0,0,.12.84,1.58,1.58,0,0,0,.35.58,1.27,1.27,0,0,0,.52.34,2,2,0,0,0,.65.11,1.82,1.82,0,0,0,.74-.13,2.72,2.72,0,0,0,.54-.27,2.68,2.68,0,0,0,.38-.28.4.4,0,0,1,.22-.12.29.29,0,0,1,.2.11l.31.51a3.4,3.4,0,0,1-1.16.81A3.67,3.67,0,0,1,135.56,112.68Z"/><path class="cls-1" d="M145.41,100.36a5.75,5.75,0,0,1,2.3.44,4.55,4.55,0,0,1,1.71,1.24,5.35,5.35,0,0,1,1.06,1.94,8.87,8.87,0,0,1,0,5.07,5.31,5.31,0,0,1-1.06,1.93,4.55,4.55,0,0,1-1.71,1.24,6.34,6.34,0,0,1-4.59,0A4.66,4.66,0,0,1,141.4,111a5.48,5.48,0,0,1-1.07-1.93,9.11,9.11,0,0,1,0-5.07A5.53,5.53,0,0,1,141.4,102a4.66,4.66,0,0,1,1.72-1.24A5.74,5.74,0,0,1,145.41,100.36Zm0,11.39a4.33,4.33,0,0,0,1.87-.37,3.42,3.42,0,0,0,1.33-1,4.54,4.54,0,0,0,.8-1.65,9.1,9.1,0,0,0,0-4.32,4.67,4.67,0,0,0-.8-1.66,3.57,3.57,0,0,0-1.33-1.07,4.89,4.89,0,0,0-3.73,0,3.57,3.57,0,0,0-1.33,1.07,4.68,4.68,0,0,0-.81,1.66,8.78,8.78,0,0,0,0,4.32,4.55,4.55,0,0,0,.81,1.65,3.42,3.42,0,0,0,1.33,1A4.32,4.32,0,0,0,145.41,111.75Z"/><path class="cls-1" d="M160.43,102a.29.29,0,0,1-.27.17.64.64,0,0,1-.34-.15,6.32,6.32,0,0,0-.55-.34,4.91,4.91,0,0,0-.84-.33,4.28,4.28,0,0,0-1.22-.15,3.65,3.65,0,0,0-1.18.18,2.94,2.94,0,0,0-.91.5,2.23,2.23,0,0,0-.59.72,1.92,1.92,0,0,0-.21.87,1.4,1.4,0,0,0,.29.93,2.49,2.49,0,0,0,.75.64,5.73,5.73,0,0,0,1.06.45l1.22.39c.42.12.82.27,1.22.42a4.67,4.67,0,0,1,1.06.58,2.84,2.84,0,0,1,.76.86A2.42,2.42,0,0,1,161,109a3.68,3.68,0,0,1-.29,1.45,3.28,3.28,0,0,1-.81,1.17,3.91,3.91,0,0,1-1.32.78,5.14,5.14,0,0,1-1.77.28,5.29,5.29,0,0,1-2.17-.4,6,6,0,0,1-1.64-1l.28-.4a.39.39,0,0,1,.13-.15.41.41,0,0,1,.21-.05.67.67,0,0,1,.38.2,6.39,6.39,0,0,0,.59.41,4.43,4.43,0,0,0,.92.41,4,4,0,0,0,1.35.19,3.68,3.68,0,0,0,1.33-.21,2.69,2.69,0,0,0,1-.57,2.35,2.35,0,0,0,.58-.84,2.78,2.78,0,0,0,.2-1,1.64,1.64,0,0,0-.29-1,2.26,2.26,0,0,0-.76-.67,4.47,4.47,0,0,0-1.06-.47l-1.22-.39c-.42-.13-.83-.26-1.23-.42a4.47,4.47,0,0,1-1.06-.57,2.77,2.77,0,0,1-.75-.85,2.37,2.37,0,0,1-.29-1.24,2.89,2.89,0,0,1,.27-1.22,3.19,3.19,0,0,1,.79-1,4,4,0,0,1,1.24-.71,5,5,0,0,1,1.65-.26,5.5,5.5,0,0,1,1.93.32,4.71,4.71,0,0,1,1.56,1Z"/></g><g id="logo"><line class="cls-2" x1="25" y1="75" x2="229" y2="75"/><path class="cls-1" d="M72.83,50.12H79v7.72a16.72,16.72,0,0,1-6.68,1.45A10,10,0,0,1,65,56.63a8.8,8.8,0,0,1-2.65-6.51,9,9,0,0,1,2.81-6.76,9.81,9.81,0,0,1,7-2.73,10.89,10.89,0,0,1,2.9.32,29,29,0,0,1,3.46,1.21v2.65A12.54,12.54,0,0,0,72.11,43a6.88,6.88,0,0,0-7,6.74V50a6.61,6.61,0,0,0,2,5.07A7.42,7.42,0,0,0,72.35,57a11.93,11.93,0,0,0,3.7-.73l.24-.08V52.37H72.83Z"/><polygon class="cls-1" points="85.38 40.95 95.68 40.95 95.68 43.28 87.96 43.28 87.96 48.75 95.44 48.75 95.44 51.09 87.96 51.09 87.96 56.72 95.92 56.72 95.92 59.05 85.38 59.05 85.38 40.95"/><path class="cls-1" d="M110.24,40.71a9.73,9.73,0,0,1,7,2.65,9.34,9.34,0,0,1,.17,13.19l-.17.17a9.91,9.91,0,0,1-7.08,2.65,9.49,9.49,0,0,1-6.84-2.65,8.7,8.7,0,0,1-2.73-6.6,8.9,8.9,0,0,1,2.73-6.76,9.43,9.43,0,0,1,6.92-2.65m.08,2.41a7.2,7.2,0,0,0-5.15,1.93,6.59,6.59,0,0,0-2,5,6.49,6.49,0,0,0,2,4.91,7.15,7.15,0,0,0,5.07,1.93,6.87,6.87,0,0,0,5.07-2,6.59,6.59,0,0,0,2-5,6.32,6.32,0,0,0-2-4.83,7.16,7.16,0,0,0-5-1.93"/><polygon class="cls-1" points="136.3 40.95 138.87 40.95 131.23 59.13 130.67 59.13 122.87 40.95 125.44 40.95 130.91 53.66 136.3 40.95"/><path class="cls-1" d="M147.24,40.87h1.85l8.12,18.26h-2.65l-2.41-5.39h-7.73l-2.25,5.39h-2.65ZM151,51.41l-2.9-6.6-2.73,6.6Z"/><polygon class="cls-1" points="157.62 40.95 172.74 40.95 172.74 43.2 166.47 43.2 166.47 59.05 163.81 59.05 163.81 43.2 157.62 43.2 157.62 40.95"/><rect class="cls-1" x="177.89" y="40.95" width="2.57" height="18.18"/><path class="cls-1" d="M196.07,40.71a9.69,9.69,0,0,1,7,2.65,9.32,9.32,0,0,1,.17,13.19l-.17.17A9.89,9.89,0,0,1,196,59.37a9.49,9.49,0,0,1-6.84-2.65,8.71,8.71,0,0,1-2.74-6.6,9,9,0,0,1,2.74-6.76,9.65,9.65,0,0,1,6.92-2.65m.16,2.41a7.22,7.22,0,0,0-5.15,2,7.1,7.1,0,0,0,0,9.9,7,7,0,0,0,5.07,1.93,6.84,6.84,0,0,0,5.06-2,6.52,6.52,0,0,0,2-5,6.29,6.29,0,0,0-2-4.83,7.4,7.4,0,0,0-5-1.93"/><polygon class="cls-1" points="226.15 40.95 228.64 40.95 228.64 59.05 226.39 59.05 214.25 45.13 214.25 59.05 211.83 59.05 211.83 40.95 213.92 40.95 226.15 55.03 226.15 40.95"/><polygon class="cls-1" points="46.64 57.91 38.16 42.97 39.73 62.5 35.04 62.5 36.6 42.97 28.13 57.91 24.88 55.21 37.38 40.63 49.88 55.21 46.64 57.91"/><rect class="cls-1" x="24.88" y="37.5" width="25" height="3.13"/></g></svg>
