<svg id="Capa_1" enable-background="new 0 0 495.491 495.491" height="512" viewBox="0 0 495.491 495.491" width="512" xmlns="http://www.w3.org/2000/svg"><g><path d="m468.948 116.847c14.659 0 26.543 11.884 26.543 26.543v284.125c0 14.659-11.884 26.543-26.543 26.543h-442.405c-14.659 0-26.543-11.883-26.543-26.543v-284.125c0-14.659 11.884-26.543 26.543-26.543z" fill="#aa9ea9"/><path d="m366.732 116.847h-102.535c6.275 5.092 10.083 13.111 9.31 21.962-1.039 11.894-10.494 21.607-22.36 22.932-15.276 1.706-28.262-10.259-28.262-25.198 0-7.944 3.674-15.042 9.409-19.696h-205.751c-14.659 0-26.543 11.884-26.543 26.543v284.125c0 14.659 11.884 26.543 26.543 26.543h133.79c-14.659 0-26.543-11.884-26.543-26.543v-212.757c0-12.585 15.982-17.849 23.552-7.795 7.103 9.433 15.522 19.234 25.275 29.438 24.806 25.952 49.343 44.925 50.375 45.72l15.253 11.746 15.253-11.746c1.032-.795 25.569-19.768 50.375-45.72 36.661-38.355 54.482-71.02 54.482-99.858.001-6.707-.561-13.285-1.623-19.696z" fill="#9b8e99"/><g id="XMLID_510_"><g><path d="m435.176 153.313v264.28c0 3.57-2.89 6.47-6.47 6.47h-360.99c-3.57 0-6.47-2.9-6.47-6.47v-264.28c0-3.57 2.9-6.47 6.47-6.47h360.99c3.58 0 6.47 2.9 6.47 6.47z" fill="#ade194"/></g></g><path d="m271.402 146.843c-3.585 8.003-11.214 13.888-20.255 14.898-11.528 1.287-21.747-5.212-26.07-14.898h-157.361c-3.57 0-6.47 2.9-6.47 6.47v264.28c0 3.57 2.9 6.47 6.47 6.47h66.075v-209.305c0-12.585 15.982-17.849 23.552-7.795 7.104 9.433 15.522 19.234 25.275 29.438 24.806 25.952 49.343 44.925 50.375 45.72l15.253 11.746 15.253-11.746c1.032-.795 25.569-19.768 50.375-45.72 32.365-33.861 50.038-63.284 53.737-89.558z" fill="#97da7b"/><g><path d="m464.465 295.921c-4.143 0-7.5-3.357-7.5-7.5v-5.936c0-4.143 3.357-7.5 7.5-7.5s7.5 3.357 7.5 7.5v5.936c0 4.142-3.357 7.5-7.5 7.5z" fill="#baafb9"/></g><circle cx="248.246" cy="136.543" fill="#f9f7f8" r="67.132"/><g id="XMLID_517_"><g><path d="m248.246 41.433c52.53 0 95.11 42.59 95.11 95.11 0 52.53-95.11 125.77-95.11 125.77s-95.11-73.24-95.11-125.77c0-52.52 42.58-95.11 95.11-95.11zm50.36 95.11c0-27.81-22.55-50.36-50.36-50.36s-50.36 22.55-50.36 50.36c0 27.82 22.55 50.36 50.36 50.36s50.36-22.54 50.36-50.36z" fill="#f47c7c"/></g></g><g><path d="m240.401 186.292c-24.085-3.768-42.516-24.599-42.516-49.749 0-22.615 14.913-41.75 35.44-48.111 10.94-18.617 28.032-33.18 48.486-40.898-10.438-3.939-21.749-6.101-33.566-6.101-52.53 0-95.11 42.59-95.11 95.11 0 52.53 95.11 125.771 95.11 125.771s15.268-11.761 33.566-29.229c-13.831-13.205-29.393-29.668-41.41-46.793z" fill="#ee6161"/></g><g id="XMLID_515_"><g><path d="m435.176 262.313v48.16h-244.2l-78.48 113.59h-44.78c-3.57 0-6.47-2.9-6.47-6.47v-13.829l64.86-93.291h-64.86v-48.16z" fill="#fef1da"/></g></g><g fill="#fae2c0"><path d="m209.466 262.313c13.191 11.817 22.886 19.314 23.526 19.808l12.205 9.399c1.796 1.383 4.299 1.383 6.095 0l12.205-9.399c.641-.493 10.336-7.991 23.526-19.808z"/><path d="m67.716 424.063h44.78l21.295-30.822v-130.928h-72.545v48.16h64.86l-64.86 93.291v13.829c0 .223.011.444.033.661.066.652.23 1.275.475 1.856.984 2.322 3.284 3.953 5.962 3.953z"/></g><path d="m354.753 372.065-6.056-4.797 6.056-4.797c3.246-2.571 3.794-7.289 1.222-10.536-2.571-3.244-7.288-3.795-10.536-1.222l-8.821 6.987-8.821-6.987c-3.248-2.572-7.963-2.024-10.536 1.222-2.572 3.247-2.024 7.965 1.222 10.536l6.056 4.797-6.056 4.797c-3.246 2.571-3.794 7.289-1.222 10.536 1.48 1.868 3.671 2.843 5.884 2.843 1.631 0 3.274-.529 4.652-1.621l8.821-6.987 8.821 6.987c1.379 1.092 3.021 1.621 4.652 1.621 2.212 0 4.403-.975 5.884-2.843 2.572-3.247 2.025-7.965-1.222-10.536z" fill="#f47c7c"/></g></svg>